<?xml version="1.0" encoding="UTF-8"?>
<svg id="uuid-3f3b512b-3e65-4e2e-b47c-b019fb90f5fd" data-name="Ebene 1" xmlns="http://www.w3.org/2000/svg" width="80.77mm" height="15.2698mm" viewBox="0 0 228.9543 43.2844">
  <defs>
    <style>
      .uuid-c6a79ca7-8d4b-4459-9e4d-96074faace55 {
        fill: #008cc2;
      }
    </style>
  </defs>
  <path class="uuid-c6a79ca7-8d4b-4459-9e4d-96074faace55" d="m211.4305,1.0049c-.1379.0735-2.1114.0845-2.4693.0845s-2.2168-.0117-2.3469-.0845l-17.4494,41.2773s2.2057-.2927,4.6044,0l5.0188-11.7679,15.5602-.0232,5.057,11.7911s4.5115-.4474,9.5491,0c.0046.0231-17.5239-41.2773-17.5239-41.2773Zm-11.1606,25.8956l6.3443-14.9335v.0464l6.2984,14.8884-12.6427-.0013Z"/>
  <path class="uuid-c6a79ca7-8d4b-4459-9e4d-96074faace55" d="m179.7536,1.0049s-1.5112.0845-3.0449.0845c-1.421,0-3.0478-.0845-3.0478-.0845-2.1847,4.8947-12.7218,30.0374-12.7218,30.0374,0,0-11.7568-27.6208-12.8444-30.0374-.4738.066-1.7373.1052-3.0426.0845-1.5323-.0243-3.0508-.0845-3.0508-.0845l-4.9386,41.2773s2.7227-.3655,5.5583,0c0,0,3.0528-25.9075,3.045-25.8504l10.5037,25.8504s2.3205-.2205,4.5073,0c0,0,9.6548-22.5981,11.7492-27.528l2.5373,27.528s4.4548-.2983,8.875.056v-.056c0,.0081-3.6814-37.7978-4.085-41.2773Z"/>
  <path class="uuid-c6a79ca7-8d4b-4459-9e4d-96074faace55" d="m130.1106,26.1786v-8.2555c0-3.3569.0398-6.3461.1215-8.9551v.0077c.0804-2.6054.2015-5.3443.3632-7.9707-.561.0722-2.318.0845-4.681.0845-2.413,0-4.1831-.0126-4.6919-.0845.1608,2.6238.2911,5.3679.3725,7.9707.0807,2.6091.1215,5.5905.1215,8.9474v8.2535c0,3.3579-.0408,6.3405-.1215,8.9495-.0813,2.6091-.2029,4.6487-.364,7.1561,0,0,4.6813-.2699,9.3651,0,.0118-.0013-.2836-4.5471-.364-7.1562-.0817-2.6091-.1215-5.5895-.1215-8.9474Z"/>
  <path class="uuid-c6a79ca7-8d4b-4459-9e4d-96074faace55" d="m102.6585,26.1216v-8.2555c0-3.357.0398-6.3464.1215-8.9555v.0081c.0269-.8739.0592-1.4272.0955-1.8892.5999.0016,1.3246.0212,2.1879.0595.9002.0405,1.8615.0909,2.8835.1516,1.0228.0608,2.529.1422,3.5919.2428,1.0479.0996,2.0137.2091,2.9015.3284-.2108-3.4903-.0553-6.5033.0209-6.8068-15.9008.772-32.013.0003-32.0235,0,0,0,.2305,3.3273.0198,6.8176.8878-.1193,1.8536-.2288,2.9015-.3284,1.0629-.1007,2.5691-.182,3.5919-.2428,1.022-.0607,1.9833-.1111,2.8835-.1516.8633-.0383,1.588-.0579,2.1879-.0595.0364.462.0686.9965.0955,1.8704,0,0,.1215,5.5985.1215,8.9555l.0249,8.2535c0,3.3579-.0408,6.3405-.1215,8.9495-.0813,2.609-.203,4.7057-.364,7.2131,0,0,4.6812-.2699,9.3651,0,.0117-.0014-.2836-4.6041-.364-7.2132-.0817-2.6091-.1215-5.5895-.1215-8.9474Z"/>
  <path class="uuid-c6a79ca7-8d4b-4459-9e4d-96074faace55" d="m77.8802,19.9333c.9253-1.7836,1.4524-4.4378,1.3328-6.4701-.1853-7.984-5.9064-10.5506-8.1507-11.4664-2.5626-1.0457-7.0107-1.0774-9.2678-.9261-.429.0288-1.8944-.0234-2.5806.0188-.7936.0323-1.7918,0-2.936,0-2.413,0-4.178-.0126-4.6868-.0845.1608,2.6237.2863,5.3679.3676,7.9707.0807,2.6091.1215,5.5904.1215,8.9474v8.2534c0,3.3579-.0408,6.3405-.1215,8.9495-.0813,2.6091-.203,4.6487-.364,7.1562,0,0,4.6812-.2698,9.3651,0,.0117-.0013-.2836-4.5472-.364-7.1563-.0761-2.4319-.1144-5.2005-.1195-8.283l3.2687.0501c2.2653,0,3.4723-.0885,5.6128-.6391,1.9814-.4682,4.1254-1.4824,5.5213-2.5136,1.4076-1.0651,2.444-2.4414,3.0008-3.8069Zm-17.2498,3.1025l-.1559-.0346v-5.0781c0-3.357.0398-6.3462.1215-8.9551v.0077c.0419-1.3577.0965-2.7362.1609-4.1172,1.1435-.1787,9.9065-1.212,9.9065,9.1145h-.001c-.0203,11.0286-10.0321,9.0629-10.0321,9.0629Z"/>
  <path class="uuid-c6a79ca7-8d4b-4459-9e4d-96074faace55" d="m46.1529,21.6492C45.6766-7.2149.4841-7.2132.0003,21.635h-.0003v.0112h.0003c.4906,28.8574,45.6695,28.8435,46.1526.003Zm-23.0555,18.3146c-8.0401,0-13.7419-6.1739-13.6774-18.1607.0617-11.4714,5.7032-17.7217,13.6643-17.6541,7.7318.0657,13.5503,5.8718,13.6599,17.6541.1097,11.7918-5.6066,18.1607-13.6467,18.1607Z"/>
</svg>