<?xml version="1.0" encoding="UTF-8"?><svg id="Ebene_2" xmlns="http://www.w3.org/2000/svg" viewBox="0 0 288.15 70.95"><defs><style>.cls-1,.cls-2{fill:#909090;}.cls-3{fill:#d53140;}.cls-2{fill-rule:evenodd;}</style></defs><g id="Ebene_1-2"><path class="cls-3" d="m70.88,33.4h-25.88c-.06.69-.1,1.37-.1,2.07s.05,1.38.1,2.07h25.88c.04-.69.07-1.37.07-2.07s-.02-1.39-.07-2.08"/><path class="cls-3" d="m30.06,35.47c0-.7.03-1.39.07-2.07H.06c-.04.69-.06,1.38-.06,2.08s.02,1.38.06,2.07h30.06c-.04-.69-.07-1.37-.07-2.07"/><path class="cls-3" d="m50.68,3.43c-4.61-2.19-9.77-3.43-15.21-3.43C17.83,0,3.21,12.88.46,29.74h30.1c2.02-11.32,9.88-20.93,20.11-26.32"/><path class="cls-3" d="m70.48,29.74c-1.08-6.65-4.02-12.67-8.25-17.54-8.43,2.34-14.73,8.92-16.68,17.54h24.93Z"/><path class="cls-3" d="m62.23,58.74c4.22-4.87,7.16-10.89,8.24-17.53h-24.93c1.96,8.62,8.26,15.2,16.69,17.53"/><path class="cls-3" d="m30.57,41.21H.46c2.74,16.86,17.37,29.74,35,29.74,5.45,0,10.61-1.23,15.21-3.43-10.24-5.39-18.1-15-20.12-26.31"/><path class="cls-2" d="m282.58,29.16c3.11,0,5.57-2.46,5.57-5.56s-2.46-5.56-5.57-5.56-5.57,2.46-5.57,5.56,2.46,5.56,5.57,5.56m0-10.21c2.54,0,4.66,2.02,4.66,4.65s-2.12,4.65-4.66,4.65-4.67-2.04-4.67-4.65,2.12-4.65,4.67-4.65m.96,4.93c.84-.03,1.67-.48,1.67-1.71,0-1.31-1.02-1.65-2.15-1.65h-2.63v6.25h.9v-2.88h1.16l1.6,2.88h1.03l-1.58-2.88Zm-.65-2.46c.75,0,1.41.06,1.41.85,0,.85-1.16.71-2.01.71h-.96v-1.56h1.56Z"/><polygon class="cls-1" points="90.31 55.04 109.49 55.04 109.49 50.97 94.77 50.97 94.77 37.47 109.07 37.47 109.07 33.4 94.77 33.4 94.77 23.41 109.49 23.41 109.49 19.34 90.31 19.34 90.31 55.04"/><path class="cls-1" d="m145.72,20.99c-2.7-1.66-5.87-2.42-9-2.42-10.51,0-18.99,8.24-18.99,18.8s8.43,18.42,18.61,18.42c3.13,0,6.63-.9,9.38-2.51v-5.26c-2.65,2.37-6.01,3.69-9.52,3.69-7.96,0-14.02-6.68-14.02-14.49s6.11-14.59,14.11-14.59c3.36,0,6.87,1.23,9.42,3.51v-5.16Z"/><path class="cls-2" d="m171.95,18.58c-10.23,0-18.71,8.38-18.71,18.61s8.38,18.61,18.71,18.61,18.71-8,18.71-18.61-8.48-18.61-18.71-18.61m0,33.05c-7.72,0-14.25-6.3-14.25-14.44s5.87-14.44,14.25-14.44,14.25,6.58,14.25,14.44-6.53,14.44-14.25,14.44"/><polygon class="cls-1" points="200.83 19.34 195.95 19.34 211.48 56.94 226.97 19.34 222.09 19.34 211.48 45.76 200.83 19.34"/><rect class="cls-1" x="234.58" y="19.34" width="4.45" height="35.71"/><path class="cls-1" d="m269.85,23.98c-1.94-3.46-5.21-5.4-9.19-5.4-5.4,0-10.51,3.46-10.51,9.23,0,4.97,3.69,7.29,7.76,9.04l2.46,1.04c3.08,1.28,6.16,2.93,6.16,6.77s-2.75,6.96-6.58,6.96-6.96-2.84-6.91-6.77l-4.5.95c.76,5.73,5.25,9.99,11.03,9.99,6.39,0,11.41-4.64,11.41-11.13,0-5.97-3.79-8.76-8.85-10.75l-2.56-.99c-2.23-.85-4.97-2.32-4.97-5.11,0-3.13,3.12-5.07,5.97-5.07s4.4,1.14,5.73,3.36l3.55-2.13Z"/></g></svg>