<?xml version="1.0" encoding="UTF-8" standalone="no"?><!DOCTYPE svg PUBLIC "-//W3C//DTD SVG 1.1//EN" "http://www.w3.org/Graphics/SVG/1.1/DTD/svg11.dtd"><svg width="100%" height="100%" viewBox="0 0 955 300" version="1.1" xmlns="http://www.w3.org/2000/svg" xmlns:xlink="http://www.w3.org/1999/xlink" xml:space="preserve" xmlns:serif="http://www.serif.com/" style="fill-rule:evenodd;clip-rule:evenodd;stroke-linejoin:round;stroke-miterlimit:2;"><path d="M880.96,62.52c-0.575,0.306 -8.798,0.352 -10.289,0.352c-1.491,0 -9.237,-0.049 -9.779,-0.352l-72.706,171.989c0,0 9.19,-1.22 19.185,0l20.912,-49.033l64.834,-0.097l21.071,49.13c0,0 18.798,-1.864 39.788,0c0.019,0.096 -73.016,-171.989 -73.016,-171.989Zm-46.502,107.898l26.435,-62.223l0,0.193l26.243,62.035l-52.678,-0.005Z" style="fill:#008cc2;fill-rule:nonzero;"/><path d="M748.973,62.52c0,0 -6.297,0.352 -12.687,0.352c-5.921,0 -12.699,-0.352 -12.699,-0.352c-9.103,20.395 -53.007,125.156 -53.007,125.156c0,0 -48.987,-115.087 -53.518,-125.156c-1.974,0.275 -7.239,0.438 -12.677,0.352c-6.385,-0.101 -12.712,-0.352 -12.712,-0.352l-20.577,171.989c0,0 11.345,-1.523 23.16,0c0,0 12.72,-107.948 12.688,-107.71l43.765,107.71c0,0 9.669,-0.919 18.78,0c0,0 40.228,-94.159 48.955,-114.7l10.572,114.7c0,0 18.562,-1.243 36.979,0.233l0,-0.233c0,0.034 -15.339,-157.491 -17.021,-171.989l0,-0Z" style="fill:#008cc2;fill-rule:nonzero;"/><path d="M542.128,167.411l0,-34.398c0,-13.987 0.166,-26.442 0.506,-37.313l0,0.032c0.335,-10.856 0.84,-22.268 1.513,-33.211c-2.337,0.301 -9.658,0.352 -19.504,0.352c-10.054,0 -17.43,-0.053 -19.55,-0.352c0.67,10.933 1.213,22.366 1.552,33.211c0.336,10.871 0.506,23.294 0.506,37.281l0,34.39c0,13.991 -0.17,26.419 -0.506,37.29c-0.339,10.871 -0.845,19.37 -1.517,29.817c0,0 19.505,-1.125 39.021,0c0.049,-0.005 -1.182,-18.946 -1.517,-29.817c-0.34,-10.871 -0.506,-23.29 -0.506,-37.281l0,-0Z" style="fill:#008cc2;fill-rule:nonzero;"/><path d="M427.744,167.173l0,-34.398c0,-13.988 0.166,-26.443 0.506,-37.315l0,0.034c0.112,-3.641 0.247,-5.947 0.398,-7.872c2.5,0.007 5.519,0.088 9.116,0.248c3.751,0.169 7.756,0.379 12.015,0.632c4.262,0.253 10.538,0.592 14.966,1.012c4.366,0.415 8.39,0.871 12.09,1.368c-0.878,-14.543 -0.23,-27.097 0.087,-28.362c-66.253,3.217 -133.388,0.001 -133.431,0c0,0 0.96,13.864 0.083,28.407c3.699,-0.497 7.723,-0.953 12.09,-1.368c4.429,-0.42 10.705,-0.758 14.966,-1.012c4.258,-0.253 8.264,-0.463 12.015,-0.632c3.597,-0.16 6.617,-0.241 9.116,-0.248c0.152,1.925 0.286,4.152 0.398,7.793c0,0 0.506,23.327 0.506,37.315l0.104,34.39c0,13.991 -0.17,26.419 -0.506,37.29c-0.339,10.871 -0.846,19.607 -1.517,30.055c0,0 19.505,-1.125 39.021,0c0.049,-0.006 -1.182,-19.184 -1.517,-30.055c-0.34,-10.871 -0.506,-23.29 -0.506,-37.281l0.001,-0Z" style="fill:#008cc2;fill-rule:nonzero;"/><path d="M324.501,141.389c3.855,-7.432 6.052,-18.491 5.553,-26.959c-0.772,-33.267 -24.61,-43.961 -33.961,-47.777c-10.678,-4.357 -29.211,-4.489 -38.616,-3.859c-1.788,0.12 -7.893,-0.097 -10.752,0.078c-3.307,0.135 -7.466,0 -12.233,0c-10.054,0 -17.408,-0.052 -19.528,-0.352c0.67,10.932 1.193,22.366 1.532,33.211c0.336,10.871 0.506,23.293 0.506,37.281l0,34.389c0,13.991 -0.17,26.419 -0.506,37.29c-0.339,10.871 -0.846,19.37 -1.517,29.817c0,0 19.505,-1.124 39.021,0c0.049,-0.005 -1.182,-18.947 -1.517,-29.818c-0.317,-10.133 -0.477,-21.669 -0.498,-34.513l13.62,0.209c9.439,0 14.468,-0.369 23.387,-2.663c8.256,-1.951 17.189,-6.177 23.005,-10.473c5.865,-4.438 10.183,-10.173 12.503,-15.862l0.001,-0Zm-71.874,12.927l-0.65,-0.144l0,-21.159c0,-13.987 0.166,-26.442 0.506,-37.313l0,0.032c0.175,-5.657 0.402,-11.401 0.67,-17.155c4.765,-0.745 41.277,-5.05 41.277,37.977l-0.004,0c-0.085,45.953 -41.8,37.762 -41.8,37.762l0,-0Z" style="fill:#008cc2;fill-rule:nonzero;"/><path d="M192.304,148.538c-1.985,-120.267 -190.287,-120.26 -192.303,-0.059l-0.001,0l0,0.047l0.001,0c2.044,120.239 190.29,120.181 192.303,0.013Zm-96.065,76.311c-33.5,0 -57.258,-25.725 -56.989,-75.67c0.257,-47.797 23.763,-73.84 56.935,-73.559c32.216,0.274 56.46,24.466 56.916,73.559c0.457,49.133 -23.361,75.67 -56.861,75.67l-0,0Z" style="fill:#008cc2;fill-rule:nonzero;"/></svg>