<svg width="250" height="92" viewBox="0 0 250 92" fill="none" xmlns="http://www.w3.org/2000/svg">
<g clip-path="url(#clip0_273_17)">
<path d="M0 8.91016L48.4867 36.925V55.5702L16.3822 36.925V73.7674L0 64.4567V8.91016Z" fill="#0B3780"/>
<path d="M32.1281 64.4918V46.0588L16.3823 36.9248V73.7672L32.1281 64.4918Z" fill="#181148"/>
<path d="M48.4867 36.9131L96.9734 8.91007L80.5794 0L48.4867 18.6923L16.3822 0L0 8.91007L48.4867 36.9131V36.9249V36.9131Z" fill="#699BCC"/>
<path d="M96.9735 8.91016L48.4868 36.925V55.5702L80.5795 36.925V73.7674L96.9735 64.4567V8.91016Z" fill="#181148"/>
<path d="M64.8569 64.4918V46.0588L80.5792 36.9248V73.7672L64.8569 64.4918Z" fill="#0B3780"/>
<path d="M48.4868 91.9998L80.5795 73.7671L64.8572 64.4917L48.4868 73.7789L32.1281 64.4917L16.3823 73.7671L48.4868 91.9998Z" fill="#B0B6BB"/>
<path d="M13.2236 1.72073L48.5338 22.4755L83.8322 1.76787L80.5794 0L48.4867 18.6923L16.3822 0L13.2236 1.72073Z" fill="#EC2027"/>
<path d="M148.689 25.3633L140.463 39.518L132.39 25.3633H120.533V50.5967H129.031V35.6051L137.646 50.5967H143.233L151.931 35.5816V50.5967H160.393V25.3633H148.689Z" fill="#181148"/>
<path d="M194.489 25.3633L186.274 39.518L178.201 25.3633H166.333V50.5967H174.842V35.6051L183.457 50.5967H189.032L197.742 35.5816V50.5967H206.204V25.3633H194.489Z" fill="#181148"/>
<path d="M249.128 29.5943C248.527 28.2036 247.537 27.1429 246.181 26.4475C245.451 26.0586 244.555 25.7757 243.506 25.6107C242.504 25.4457 241.196 25.375 239.522 25.375H212.167V50.6084H220.889V44.6684H242.139C244.944 44.6684 246.983 43.9023 248.208 42.3819C249.411 40.8969 250 38.4808 250 35.0158C250 32.7411 249.717 30.9261 249.128 29.5943ZM220.901 32.7293H239.275C239.982 32.7293 240.477 32.8708 240.748 33.1654C241.031 33.4718 241.184 34.0258 241.184 34.7919C241.184 36.1472 240.913 36.6776 240.748 36.8662C240.453 37.2315 239.77 37.314 239.275 37.314H220.901V32.7293Z" fill="#181148"/>
</g>
<defs>
<clipPath id="clip0_273_17">
<rect width="250" height="92" fill="white"/>
</clipPath>
</defs>
</svg>
