<svg width="174" height="40" viewBox="0 0 174 40" fill="none" xmlns="http://www.w3.org/2000/svg">
<path d="M33.2068 2.37012H15.998L25.0881 12.2588V36.5033H42.7499V10.4249L33.2068 2.37012ZM27.9943 24.1297C27.9902 23.2229 27.9874 22.316 27.9972 21.4094C27.9985 21.2816 28.0693 21.1546 28.1079 21.0272H31.5476V24.5218C31.486 24.5604 31.4245 24.6324 31.3628 24.6326C30.3272 24.636 29.2916 24.6308 28.2559 24.6252C28.2271 24.6251 28.1985 24.6 28.1697 24.5865C28.1279 24.5442 28.0861 24.5018 28.0444 24.4594C28.0269 24.3495 27.9948 24.2397 27.9943 24.1297ZM31.568 33.9673H28.1855C28.1585 33.9322 28.1316 33.8972 28.1046 33.8621C28.1071 32.7513 28.1096 31.6405 28.112 30.5296L28.1876 30.4571H31.568L31.568 33.9673ZM36.1765 29.2355H32.742C32.7027 29.174 32.6291 29.1126 32.629 29.051C32.6266 27.9574 32.6328 26.8638 32.6396 25.7701C32.6398 25.7423 32.6677 25.7146 32.6826 25.6868C32.7097 25.6709 32.7366 25.6414 32.7638 25.6412C33.8401 25.6332 34.9164 25.6259 35.9927 25.6273C36.054 25.6274 36.1152 25.7015 36.1765 25.7411L36.1765 29.2355ZM40.6388 34.0023C39.7224 33.9983 38.8059 33.9953 37.8896 33.9893C37.7133 33.9881 37.5371 33.9749 37.3609 33.9673C37.3339 33.9322 37.307 33.8972 37.28 33.8621C37.2825 32.7513 37.285 31.6405 37.2875 30.5296L37.363 30.4571C38.4565 30.4554 39.5499 30.4536 40.6434 30.4518C40.674 30.4773 40.7045 30.5027 40.7351 30.5282C40.737 31.6729 40.7389 32.8176 40.7408 33.9624C40.7068 33.9757 40.6728 33.989 40.6388 34.0023Z" fill="#005BFF"/>
<mask id="mask0_701_6862" style="mask-type:luminance" maskUnits="userSpaceOnUse" x="15" y="2" width="28" height="35">
<path d="M33.2068 2.37012H15.998L25.0881 12.2588V36.5033H42.7499V10.4249L33.2068 2.37012ZM27.9943 24.1297C27.9902 23.2229 27.9874 22.316 27.9972 21.4094C27.9985 21.2816 28.0693 21.1546 28.1079 21.0272H31.5476V24.5218C31.486 24.5604 31.4245 24.6324 31.3628 24.6326C30.3272 24.636 29.2916 24.6308 28.2559 24.6252C28.2271 24.6251 28.1985 24.6 28.1697 24.5865C28.1279 24.5442 28.0861 24.5018 28.0444 24.4594C28.0269 24.3495 27.9948 24.2397 27.9943 24.1297ZM31.568 33.9673H28.1855C28.1585 33.9322 28.1316 33.8972 28.1046 33.8621C28.1071 32.7513 28.1096 31.6405 28.112 30.5296L28.1876 30.4571H31.568L31.568 33.9673ZM36.1765 29.2355H32.742C32.7027 29.174 32.6291 29.1126 32.629 29.051C32.6266 27.9574 32.6328 26.8638 32.6396 25.7701C32.6398 25.7423 32.6677 25.7146 32.6826 25.6868C32.7097 25.6709 32.7366 25.6414 32.7638 25.6412C33.8401 25.6332 34.9164 25.6259 35.9927 25.6273C36.054 25.6274 36.1152 25.7015 36.1765 25.7411L36.1765 29.2355ZM40.6388 34.0023C39.7224 33.9983 38.8059 33.9953 37.8896 33.9893C37.7133 33.9881 37.5371 33.9749 37.3609 33.9673C37.3339 33.9322 37.307 33.8972 37.28 33.8621C37.2825 32.7513 37.285 31.6405 37.2875 30.5296L37.363 30.4571C38.4565 30.4554 39.5499 30.4536 40.6434 30.4518C40.674 30.4773 40.7045 30.5027 40.7351 30.5282C40.737 31.6729 40.7389 32.8176 40.7408 33.9624C40.7068 33.9757 40.6728 33.989 40.6388 34.0023Z" fill="white"/>
</mask>
<g mask="url(#mask0_701_6862)">
<path d="M39.3183 24.279L81.4035 16.6219C85.398 15.8951 88.3059 12.3632 88.3059 8.23841V2.21657C88.3059 0.489871 86.6021 -0.69991 85.0164 -0.0804868L40.1497 17.4464C38.6554 18.0301 37.67 19.49 37.6719 21.1172L37.6739 22.8818C37.6749 23.7661 38.4619 24.4348 39.3183 24.279Z" fill="#FF0000"/>
</g>
<path d="M45.8145 26.4896C45.8053 23.0909 45.802 19.6922 45.7917 16.2935C45.7888 15.3465 45.7703 14.3995 45.7589 13.4525C45.8355 12.9496 45.6606 12.5024 45.4784 12.0497C45.0941 11.0948 44.5541 10.2495 43.8266 9.52899C43.4277 9.12753 43.0208 8.7339 42.632 8.32262C42.1665 7.83021 41.7283 7.31081 41.2571 6.82431C40.3915 5.93072 39.4993 5.06353 38.639 4.16478C37.8905 3.38275 37.1723 2.57081 36.4372 1.77545C36.2409 1.56302 36.0318 1.36275 35.8285 1.15691C35.6122 0.997168 35.3959 0.837424 35.1796 0.677719C35.0055 0.585616 34.8313 0.493548 34.6572 0.401481C34.2708 0.276465 33.8845 0.151449 33.4982 0.0264692C33.3222 0.0175888 33.1462 0.00101594 32.9702 0.000975746C26.2717 -0.000325249 19.5732 -0.000325249 12.8747 0.000975746C12.6987 0.00101594 12.5226 0.0171943 12.3466 0.0258774C11.9603 0.153221 11.574 0.280608 11.1877 0.407952C11.1235 0.438851 11.0592 0.46975 10.995 0.500648C10.7012 0.605302 10.3892 0.680321 10.2221 0.99097C9.98155 1.22041 9.74105 1.44984 9.50054 1.67927C9.48392 1.69758 9.46727 1.71593 9.45065 1.73424C9.10629 2.07847 8.76197 2.42274 8.41761 2.76697C8.01625 3.20773 7.61494 3.64848 7.21359 4.08924C7.05725 4.23951 6.89675 4.38564 6.74531 4.54089C6.27085 5.02726 5.79985 5.51707 5.32749 6.00557C4.92594 6.44625 4.52444 6.88693 4.12293 7.3276C3.52218 7.93213 2.92139 8.53665 2.32065 9.14114C2.13026 9.37456 1.93987 9.60794 1.74952 9.84163C1.71606 9.87995 1.68259 9.91851 1.64916 9.9571C0.991696 10.728 0.425809 11.5514 0.200055 12.5695C0.170667 12.6954 0.141236 12.8213 0.111849 12.9472C0.0972124 13.1156 0.0826156 13.2841 0.0680188 13.4525C0.0556331 13.6627 0.032494 13.873 0.0324185 14.0833C0.0305166 20.8596 0.0314082 27.6359 0.0295459 34.4122C0.0294308 34.8183 0.0102896 35.2244 0 35.6305C0.0279927 35.7936 0.0559819 35.9568 0.0839746 36.1199C0.186195 36.5462 0.288416 36.9725 0.3906 37.3988C0.41599 37.431 0.44134 37.4633 0.466694 37.4956C0.494762 37.5297 0.522831 37.5637 0.550903 37.5978C0.711435 37.8357 0.87197 38.0736 1.0325 38.3115C1.13022 38.4075 1.2279 38.5034 1.32562 38.5994C1.45568 38.7228 1.58573 38.8464 1.71579 38.9699C1.81502 39.0293 1.91421 39.0888 2.01341 39.1482C2.17374 39.2194 2.33412 39.2906 2.4945 39.3618C2.65608 39.4207 2.8177 39.4797 2.97928 39.5387C3.0761 39.5415 3.17289 39.5443 3.26968 39.5471C3.2896 39.5726 3.30951 39.5982 3.32943 39.6237C3.34146 39.6023 3.3535 39.5809 3.36549 39.5595C3.33335 39.5226 3.3012 39.4858 3.26906 39.449L3.36549 39.5595C3.63877 39.5638 3.91205 39.5717 4.18532 39.5718C7.67461 39.5726 11.1639 39.5723 14.6532 39.5723C15.5054 39.5723 16.3576 39.5712 17.2098 39.5729C17.5346 39.5735 17.8395 39.5195 18.0847 39.2788C18.1677 39.2066 18.2508 39.1344 18.3338 39.0622L18.414 38.9682C18.4819 38.8033 18.5497 38.6385 18.6176 38.4736C18.7664 38.215 18.7567 37.9523 18.6376 37.6866C18.6213 37.6228 18.605 37.559 18.5886 37.4952C18.4423 37.1409 18.2651 36.8171 17.8517 36.7275C17.6963 36.6706 17.5408 36.6137 17.3854 36.5568C16.9848 36.5479 16.5843 36.5313 16.1837 36.5311C12.4879 36.5291 8.7921 36.5229 5.0963 36.5354C4.28533 36.5381 3.5994 36.3647 3.22274 35.5483C3.21773 35.5375 3.19413 35.5356 3.17922 35.5295C3.14607 35.3664 3.11291 35.2033 3.07972 35.0402C3.10096 27.9425 3.12215 20.8448 3.14339 13.7471C3.16556 13.3394 3.30819 12.9701 3.50114 12.6193C3.61827 12.4064 3.74914 12.2012 3.8738 11.9926C4.15259 11.6936 4.43138 11.3946 4.71017 11.0956C5.10399 10.6838 5.49781 10.272 5.89163 9.86013C6.10403 9.6243 6.31037 9.38244 6.53011 9.15387C6.94952 8.71761 7.37657 8.28893 7.80044 7.8571C8.19434 7.44515 8.5882 7.0332 8.9821 6.62129C9.18425 6.39611 9.37782 6.16214 9.5903 5.94751C10.1905 5.34117 10.7951 4.73897 11.4061 4.14384C11.5557 3.99819 11.7317 3.87838 11.9041 3.75944C12.6202 3.26553 13.3297 3.33723 13.95 3.96326C14.892 4.91379 15.8325 5.86575 16.7736 6.81707C17.174 7.25924 17.5744 7.70138 17.9747 8.14352C18.1474 8.32055 18.3189 8.49876 18.493 8.67433C18.8205 9.00459 19.1496 9.33335 19.478 9.66274C19.7791 10.0078 20.0802 10.3529 20.3813 10.698C20.5211 10.8384 20.6607 10.979 20.8008 11.1191C21.0356 11.3539 21.2707 11.5883 21.5057 11.8228C21.6717 12.049 21.8377 12.2752 22.0037 12.5013C22.0337 12.576 22.0644 12.6504 22.0938 12.7254C22.1926 12.9775 22.3393 13.2225 22.3776 13.4839C22.4273 13.8237 22.3911 14.1767 22.3912 14.524C22.3913 22.6393 22.3911 30.7547 22.3919 38.87C22.3919 39.0656 22.4019 39.2611 22.4073 39.4567C22.4343 39.488 22.4612 39.5193 22.4882 39.5507C22.5518 39.5578 22.6154 39.5712 22.679 39.5712C29.154 39.5721 35.629 39.5766 42.104 39.5622C42.5519 39.5612 42.9995 39.4195 43.4472 39.3432C43.4799 39.3162 43.5126 39.2892 43.5453 39.2622C43.705 39.1834 43.8648 39.1045 44.0246 39.0257C44.1814 39.0835 44.1687 38.9458 44.2049 38.8643C44.2743 38.8267 44.3438 38.7889 44.4132 38.7512C44.4434 38.7245 44.4735 38.6979 44.5037 38.6712C44.923 38.3234 45.2621 37.902 45.4426 37.3874C45.7155 36.6097 45.8559 35.8047 45.8494 34.9694C45.8273 32.1429 45.8223 29.3162 45.8145 26.4896ZM41.5054 36.4831C41.2809 36.4898 41.0564 36.5023 40.8319 36.5023C36.1294 36.5035 31.4268 36.5054 26.7243 36.4995C26.3095 36.4989 25.8948 36.4452 25.48 36.4162C25.4821 36.3346 25.4861 36.2531 25.4861 36.1715C25.4863 28.6309 25.4864 21.0904 25.4857 13.5498C25.4857 13.4194 25.4767 13.2891 25.4718 13.1587C25.3163 11.8901 24.6608 10.8659 23.8765 9.92677C23.1708 9.08168 22.4168 8.27669 21.6606 7.47694C20.7636 6.52835 19.8382 5.60745 18.9316 4.66808C18.5157 4.2372 18.1149 3.79135 17.7089 3.35067C17.6698 3.30821 17.6425 3.25438 17.5625 3.13584H18.1498C23.022 3.13584 27.8942 3.14511 32.7663 3.12317C33.3223 3.12065 33.7178 3.32396 34.0761 3.70086C35.0026 4.67539 35.9297 5.64924 36.857 6.62305C37.8625 7.67907 38.8682 8.73485 39.8741 9.7905C40.3872 10.3289 40.9007 10.8669 41.414 11.4051C41.6149 11.6516 41.8186 11.8956 42.0159 12.1451C42.3246 12.5353 42.5971 12.9459 42.6873 13.4525C42.6849 15.166 42.6801 16.8795 42.6804 18.593C42.6813 23.1953 42.6811 27.7975 42.6893 32.3998C42.6909 33.2787 42.7291 34.1574 42.7504 35.0362C42.7504 35.0362 42.7505 35.0362 42.7504 35.0362C42.6105 35.7629 42.2109 36.2589 41.5054 36.4831Z" fill="#0053CC"/>
<path d="M97.5221 21.2935C100.66 21.2935 103.113 23.7867 103.113 27.6724C103.113 31.5583 100.66 34.1413 97.5221 34.1413C95.5997 34.1413 94.2299 33.1756 93.4786 32.1647V39.8691H90.3848V21.4955H93.4786V23.2926C94.2077 22.2369 95.6219 21.2935 97.5221 21.2935ZM96.7047 24.0562C95.0473 24.0562 93.4786 25.3589 93.4786 27.7175C93.4786 30.0759 95.0473 31.3785 96.7047 31.3785C98.3839 31.3785 99.953 30.031 99.953 27.6724C99.953 25.314 98.3839 24.0562 96.7047 24.0562Z" fill="#005BFF"/>
<path d="M107.58 33.9388H104.486V21.4952H107.58V23.4268C108.353 22.1465 109.635 21.3154 111.337 21.3154V24.6174H110.519C108.685 24.6174 107.58 25.3362 107.58 27.7395V33.9388Z" fill="#005BFF"/>
<path d="M118.842 34.1413C115.307 34.1413 112.633 31.6257 112.633 27.7175C112.633 23.7867 115.395 21.2935 118.931 21.2935C122.466 21.2935 125.228 23.7867 125.228 27.7175C125.228 31.6257 122.4 34.1413 118.842 34.1413ZM118.842 31.4011C120.477 31.4011 122.047 30.1882 122.047 27.7175C122.047 25.2242 120.522 24.0337 118.887 24.0337C117.251 24.0337 115.771 25.2242 115.771 27.7175C115.771 30.1882 117.185 31.4011 118.842 31.4011Z" fill="#005BFF"/>
<path d="M133.76 21.2935C136.899 21.2935 139.351 23.7867 139.351 27.6724C139.351 31.5583 136.899 34.1413 133.76 34.1413C131.838 34.1413 130.468 33.1756 129.717 32.1647V39.8691H126.623V21.4955H129.717V23.2926C130.446 22.2369 131.86 21.2935 133.76 21.2935ZM132.943 24.0562C131.286 24.0562 129.717 25.3589 129.717 27.7175C129.717 30.0759 131.286 31.3785 132.943 31.3785C134.622 31.3785 136.191 30.031 136.191 27.6724C136.191 25.314 134.622 24.0562 132.943 24.0562Z" fill="#005BFF"/>
<path d="M146.509 34.1413C142.951 34.1413 140.365 31.6257 140.365 27.7175C140.365 23.7867 142.884 21.2935 146.509 21.2935C150.044 21.2935 152.541 23.7416 152.541 27.4478C152.541 27.8521 152.519 28.2565 152.453 28.6607H143.503C143.658 30.5026 144.895 31.5357 146.442 31.5357C147.768 31.5357 148.497 30.8621 148.895 30.031H152.232C151.569 32.3219 149.536 34.1413 146.509 34.1413ZM143.525 26.5495H149.337C149.293 24.9096 148.011 23.8765 146.42 23.8765C144.939 23.8765 143.768 24.8424 143.525 26.5495Z" fill="#005BFF"/>
<path d="M157.01 33.9388H153.916V21.4952H157.01V23.4268C157.783 22.1465 159.065 21.3154 160.766 21.3154V24.6174H159.949C158.114 24.6174 157.01 25.3362 157.01 27.7395V33.9388Z" fill="#005BFF"/>
<path d="M163.322 24.0781H161.863V21.4951H163.322V18.418H166.437V21.4951H169.178V24.0781H166.437V30.0978C166.437 30.9288 166.769 31.2883 167.741 31.2883H169.178V33.9388H167.233C164.891 33.9388 163.322 32.928 163.322 30.0754V24.0781Z" fill="#005BFF"/>
<path d="M170.197 18.1705C170.197 17.1374 170.993 16.3286 172.098 16.3286C173.181 16.3286 173.998 17.1374 173.998 18.1705C173.998 19.2037 173.181 20.0124 172.098 20.0124C170.993 20.0124 170.197 19.2037 170.197 18.1705ZM170.529 21.4948H173.623V33.9385H170.529V21.4948Z" fill="#005BFF"/>
<path d="M59.2505 21.1482C57.8691 21.1482 56.6879 21.5389 55.7326 22.3107V16.7729H52.543V33.8932H55.7326V32.9881C56.6879 33.7599 57.8691 34.1506 59.2505 34.1506C60.9408 34.1506 62.5022 33.4829 63.6469 32.2706C64.7855 31.0651 65.4125 29.4239 65.4125 27.6495C65.4125 25.875 64.7855 24.2338 63.6469 23.0282C62.5021 21.8159 60.9407 21.1482 59.2505 21.1482ZM62.2229 27.6495C62.2229 29.5213 60.7974 30.9876 58.9777 30.9876C57.158 30.9876 55.7326 29.5213 55.7326 27.6495C55.7326 25.7775 57.158 24.3112 58.9777 24.3112C60.7974 24.3112 62.2229 25.7775 62.2229 27.6495Z" fill="#125EFA"/>
<path d="M70.6916 18.001H69.6867L67.502 19.5556V21.7377L65.418 23.4205V24.5494H67.502V29.3725C67.502 32.1861 69.4032 34.1513 72.1254 34.1513C72.7133 34.1513 73.2594 34.059 73.8438 33.861L74.2754 33.7151V30.6164L73.4679 30.8555C73.0322 30.9848 72.6313 31.0476 72.2423 31.0476C71.8165 31.0476 71.4475 30.9382 71.2067 30.7426C70.8601 30.4467 70.6916 29.992 70.6916 29.3527V24.5494H74.2754V21.4062H70.6916L70.6916 18.001Z" fill="#125EFA"/>
<path d="M84.5813 21.8721C83.7819 21.3852 82.8608 21.1484 81.7658 21.1484C80.6501 21.1484 79.6513 21.4392 78.8519 21.9929V21.4058H75.6621V33.8935H78.8519V26.9568C78.8519 25.1882 79.7011 24.2915 81.3763 24.2915C82.7456 24.2915 83.5309 24.9888 83.5309 26.2044V33.8935H86.7205V26.0065C86.7205 24.1591 85.9607 22.6909 84.5813 21.8721Z" fill="#125EFA"/>
<path d="M76.021 19.9898L85.1949 18.3206C86.0657 18.1622 86.6996 17.3923 86.6996 16.4932V15.1805C86.6996 14.8041 86.3282 14.5447 85.9825 14.6798L76.2022 18.5004C75.8765 18.6276 75.6617 18.9458 75.6621 19.3005L75.6626 19.6852C75.6628 19.878 75.8343 20.0237 76.021 19.9898Z" fill="#FF0000"/>
<mask id="mask1_701_6862" style="mask-type:luminance" maskUnits="userSpaceOnUse" x="90" y="16" width="84" height="24">
<path d="M97.5221 21.2928C100.66 21.2928 103.113 23.786 103.113 27.6717C103.113 31.5576 100.66 34.1406 97.5221 34.1406C95.5997 34.1406 94.2299 33.1749 93.4786 32.164V39.8684H90.3848V21.4948H93.4786V23.2919C94.2077 22.2362 95.6219 21.2928 97.5221 21.2928ZM96.7047 24.0555C95.0473 24.0555 93.4786 25.3582 93.4786 27.7168C93.4786 30.0752 95.0473 31.3778 96.7047 31.3778C98.3839 31.3778 99.953 30.0303 99.953 27.6717C99.953 25.3133 98.3839 24.0555 96.7047 24.0555ZM107.58 33.9385H104.486V21.4948H107.58V23.4265C108.353 22.1462 109.635 21.3151 111.336 21.3151V24.6171H110.519C108.684 24.6171 107.58 25.3359 107.58 27.7391V33.9385ZM118.843 34.1406C115.307 34.1406 112.633 31.625 112.633 27.7168C112.633 23.786 115.396 21.2928 118.931 21.2928C122.467 21.2928 125.229 23.786 125.229 27.7168C125.229 31.625 122.4 34.1406 118.843 34.1406ZM118.843 31.4004C120.478 31.4004 122.047 30.1875 122.047 27.7168C122.047 25.2235 120.522 24.033 118.887 24.033C117.252 24.033 115.771 25.2236 115.771 27.7168C115.771 30.1875 117.185 31.4004 118.843 31.4004ZM133.761 21.2928C136.899 21.2928 139.352 23.786 139.352 27.6717C139.352 31.5576 136.899 34.1406 133.761 34.1406C131.839 34.1406 130.469 33.1749 129.718 32.164V39.8684H126.624V21.4948H129.718V23.2919C130.447 22.2362 131.861 21.2928 133.761 21.2928ZM132.944 24.0555C131.286 24.0555 129.718 25.3582 129.718 27.7168C129.718 30.0752 131.286 31.3778 132.944 31.3778C134.623 31.3778 136.192 30.0303 136.192 27.6717C136.192 25.3133 134.623 24.0555 132.944 24.0555ZM146.51 34.1406C142.952 34.1406 140.367 31.625 140.367 27.7168C140.367 23.786 142.886 21.2928 146.51 21.2928C150.045 21.2928 152.542 23.7409 152.542 27.4471C152.542 27.8514 152.521 28.2558 152.454 28.66H143.504C143.659 30.5019 144.897 31.535 146.443 31.535C147.769 31.535 148.499 30.8614 148.896 30.0303H152.233C151.57 32.3212 149.537 34.1406 146.51 34.1406ZM143.527 26.5488H149.338C149.294 24.9089 148.012 23.8758 146.422 23.8758C144.941 23.8758 143.77 24.8417 143.527 26.5488ZM157.009 33.9385H153.916V21.4948H157.009V23.4265C157.782 22.1462 159.064 21.3151 160.766 21.3151V24.6171H159.948C158.114 24.6171 157.009 25.3359 157.009 27.7391V33.9385ZM163.323 24.0779H161.864V21.4948H163.323V18.4177H166.439V21.4948H169.179V24.0779H166.439V30.0975C166.439 30.9286 166.77 31.2881 167.742 31.2881H169.179V33.9385H167.234C164.892 33.9385 163.323 32.9277 163.323 30.0752V24.0779ZM170.198 18.1705C170.198 17.1374 170.994 16.3286 172.099 16.3286C173.182 16.3286 173.999 17.1374 173.999 18.1705C173.999 19.2037 173.182 20.0124 172.099 20.0124C170.994 20.0124 170.198 19.2037 170.198 18.1705ZM170.53 21.4948H173.624V33.9385H170.53V21.4948Z" fill="white"/>
</mask>
<g mask="url(#mask1_701_6862)">
<path d="M91.821 34.7033L166.526 28.324C173.616 27.7185 179.261 22.0353 179.924 14.8341L180.892 4.32092C181.169 1.30638 178.386 -1.05373 175.518 -0.235636L94.3707 22.9127C91.6681 23.6837 89.713 26.0687 89.4548 28.9099L89.1747 31.9909C89.0343 33.535 90.3008 34.8331 91.821 34.7033Z" fill="#FF0000"/>
</g>
</svg>
